{
.appVersion = "1342";
DisplayStrings = (
"/alef-ar/alefHamzaabove-ar/alefHamzabelow-ar/space/beh-ar/beh-ar/beh-ar/space/beh-ar/space/hah-ar/hah-ar/hah-ar/space/hah-ar/space/lam-ar/lam-ar/lam-ar/space/lam-ar/space/seen-ar/seen-ar/seen-ar/space/seen-ar/space/heh-ar/reh-ar/reh-ar/dal-ar/heh-ar/dal-ar/space/noon-ar/noon-ar/noon-ar/space/space/noon-ar/space/heh-ar/alef-ar/space \012/yeh-ar/alef-ar/space/alefHamzabelow-ar/lam-ar/yeh-ar/alef-ar/seen-ar/space/heh-ar/lam-ar/space/kaf-ar/teh-ar/alef-ar/beh-ar/space/kaf-ar/noon-ar"
);
copyright = "Copyright 2020 The Open Gate Mono Project Authors (https://github.com/eliheuer/open-gate-mono)";
customParameters = (
{
name = license;
value = "This Font Software is licensed under the SIL Open Font License, Version 1.1. This license is available with a FAQ at: http://scripts.sil.org/OFL";
},
{
name = licenseURL;
value = "http://scripts.sil.org/OFL";
},
{
name = fsType;
value = (
);
},
{
name = "Disable Last Change";
value = 1;
},
{
name = "Use Line Breaks";
value = 1;
},
{
name = "Use Typo Metrics";
value = 1;
},
{
name = vendorID;
value = GATE;
}
);
date = "2020-06-28 04:25:57 +0000";
designer = "Eli Heuer";
designerURL = elih.blog;
familyName = "Open Gate Naskh";
fontMaster = (
{
ascender = 980;
capHeight = 700;
descender = -350;
id = "98B9451C-6456-42E9-9BE3-FFE7D6D9360C";
visible = 1;
xHeight = 420;
}
);
glyphs = (
{
color = 4;
glyphname = "hamza-ar";
layers = (
{
anchors = (
{
name = bottom;
position = "{178, 17}";
},
{
name = top;
position = "{133, 322}";
}
);
layerId = "98B9451C-6456-42E9-9BE3-FFE7D6D9360C";
paths = (
{
closed = 1;
nodes = (
"62 -19 OFFCURVE",
"267 59 OFFCURVE",
"275 72 CURVE SMOOTH",
"283 85 OFFCURVE",
"290 148 OFFCURVE",
"275 148 CURVE SMOOTH",
"264 148 OFFCURVE",
"211 107 OFFCURVE",
"187 107 CURVE SMOOTH",
"149 107 OFFCURVE",
"83 148 OFFCURVE",
"82 180 CURVE SMOOTH",
"83 211 OFFCURVE",
"93 222 OFFCURVE",
"131 222 CURVE SMOOTH",
"153 222 OFFCURVE",
"192 204 OFFCURVE",
"205 204 CURVE SMOOTH",
"221 204 OFFCURVE",
"253 208 OFFCURVE",
"253 229 CURVE SMOOTH",
"253 287 OFFCURVE",
"189 291 OFFCURVE",
"162 291 CURVE SMOOTH",
"97 291 OFFCURVE",
"27 259 OFFCURVE",
"26 169 CURVE SMOOTH",
"27 113 OFFCURVE",
"91 85 OFFCURVE",
"91 72 CURVE SMOOTH",
"91 64 OFFCURVE",
"22 47 OFFCURVE",
"22 34 CURVE SMOOTH",
"22 15 OFFCURVE",
"36 -19 OFFCURVE",
"46 -19 CURVE SMOOTH"
);
}
);
width = 300;
}
);
unicode = 0621;
},
{
color = 4;
glyphname = "alef-ar";
layers = (
{
layerId = "98B9451C-6456-42E9-9BE3-FFE7D6D9360C";
paths = (
{
closed = 1;
nodes = (
"220 -16 OFFCURVE",
"250 150 OFFCURVE",
"250 181 CURVE SMOOTH",
"250 360 OFFCURVE",
"205 700 OFFCURVE",
"155 700 CURVE SMOOTH",
"136 700 OFFCURVE",
"100 619 OFFCURVE",
"100 605 CURVE SMOOTH",
"100 560 OFFCURVE",
"189 296 OFFCURVE",
"189 0 CURVE SMOOTH",
"189 -12 OFFCURVE",
"192 -16 OFFCURVE",
"202 -16 CURVE SMOOTH"
);
}
);
width = 270;
},
{
associatedMasterId = "98B9451C-6456-42E9-9BE3-FFE7D6D9360C";
layerId = "D1D59945-0184-4F2B-9F03-FB1FECCC306B";
name = "نقاطي";
paths = (
{
closed = 1;
nodes = (
"286 0 OFFCURVE",
"340 55 OFFCURVE",
"340 70 CURVE SMOOTH",
"340 86 OFFCURVE",
"286 140 OFFCURVE",
"270 140 CURVE SMOOTH",
"254 140 OFFCURVE",
"200 86 OFFCURVE",
"200 70 CURVE SMOOTH",
"200 55 OFFCURVE",
"254 0 OFFCURVE",
"270 0 CURVE SMOOTH"
);
},
{
closed = 1;
nodes = (
"286 140 OFFCURVE",
"340 195 OFFCURVE",
"340 210 CURVE SMOOTH",
"340 226 OFFCURVE",
"286 280 OFFCURVE",
"270 280 CURVE SMOOTH",
"254 280 OFFCURVE",
"200 226 OFFCURVE",
"200 210 CURVE SMOOTH",
"200 195 OFFCURVE",
"254 140 OFFCURVE",
"270 140 CURVE SMOOTH"
);
},
{
closed = 1;
nodes = (
"286 280 OFFCURVE",
"340 335 OFFCURVE",
"340 350 CURVE SMOOTH",
"340 366 OFFCURVE",
"286 420 OFFCURVE",
"270 420 CURVE SMOOTH",
"254 420 OFFCURVE",
"200 366 OFFCURVE",
"200 350 CURVE SMOOTH",
"200 335 OFFCURVE",
"254 280 OFFCURVE",
"270 280 CURVE SMOOTH"
);
},
{
closed = 1;
nodes = (
"286 420 OFFCURVE",
"340 475 OFFCURVE",
"340 490 CURVE SMOOTH",
"340 506 OFFCURVE",
"286 560 OFFCURVE",
"270 560 CURVE SMOOTH",
"254 560 OFFCURVE",
"200 506 OFFCURVE",
"200 490 CURVE SMOOTH",
"200 475 OFFCURVE",
"254 420 OFFCURVE",
"270 420 CURVE SMOOTH"
);
},
{
closed = 1;
nodes = (
"286 420 OFFCURVE",
"340 475 OFFCURVE",
"340 490 CURVE SMOOTH",
"340 506 OFFCURVE",
"286 560 OFFCURVE",
"270 560 CURVE SMOOTH",
"254 560 OFFCURVE",
"200 506 OFFCURVE",
"200 490 CURVE SMOOTH",
"200 475 OFFCURVE",
"254 420 OFFCURVE",
"270 420 CURVE SMOOTH"
);
},
{
closed = 1;
nodes = (
"286 560 OFFCURVE",
"340 615 OFFCURVE",
"340 630 CURVE SMOOTH",
"340 646 OFFCURVE",
"286 700 OFFCURVE",
"270 700 CURVE SMOOTH",
"254 700 OFFCURVE",
"200 646 OFFCURVE",
"200 630 CURVE SMOOTH",
"200 615 OFFCURVE",
"254 560 OFFCURVE",
"270 560 CURVE SMOOTH"
);
},
{
closed = 1;
nodes = (
"286 700 OFFCURVE",
"340 755 OFFCURVE",
"340 770 CURVE SMOOTH",
"340 786 OFFCURVE",
"286 840 OFFCURVE",
"270 840 CURVE SMOOTH",
"254 840 OFFCURVE",
"200 786 OFFCURVE",
"200 770 CURVE SMOOTH",
"200 755 OFFCURVE",
"254 700 OFFCURVE",
"270 700 CURVE SMOOTH"
);
},
{
closed = 1;
nodes = (
"286 -140 OFFCURVE",
"340 -85 OFFCURVE",
"340 -70 CURVE SMOOTH",
"340 -54 OFFCURVE",
"286 0 OFFCURVE",
"270 0 CURVE SMOOTH",
"254 0 OFFCURVE",
"200 -54 OFFCURVE",
"200 -70 CURVE SMOOTH",
"200 -85 OFFCURVE",
"254 -140 OFFCURVE",
"270 -140 CURVE SMOOTH"
);
},
{
closed = 1;
nodes = (
"286 -280 OFFCURVE",
"340 -225 OFFCURVE",
"340 -210 CURVE SMOOTH",
"340 -194 OFFCURVE",
"286 -140 OFFCURVE",
"270 -140 CURVE SMOOTH",
"254 -140 OFFCURVE",
"200 -194 OFFCURVE",
"200 -210 CURVE SMOOTH",
"200 -225 OFFCURVE",
"254 -280 OFFCURVE",
"270 -280 CURVE SMOOTH"
);
},
{
closed = 1;
nodes = (
"286 -420 OFFCURVE",
"340 -365 OFFCURVE",
"340 -350 CURVE SMOOTH",
"340 -334 OFFCURVE",
"286 -280 OFFCURVE",
"270 -280 CURVE SMOOTH",
"254 -280 OFFCURVE",
"200 -334 OFFCURVE",
"200 -350 CURVE SMOOTH",
"200 -365 OFFCURVE",
"254 -420 OFFCURVE",
"270 -420 CURVE SMOOTH"
);
},
{
closed = 1;
nodes = (
"286 840 OFFCURVE",
"340 895 OFFCURVE",
"340 910 CURVE SMOOTH",
"340 926 OFFCURVE",
"286 980 OFFCURVE",
"270 980 CURVE SMOOTH",
"254 980 OFFCURVE",
"200 926 OFFCURVE",
"200 910 CURVE SMOOTH",
"200 895 OFFCURVE",
"254 840 OFFCURVE",
"270 840 CURVE SMOOTH"
);
}
);
visible = 1;
width = 200;
}
);
unicode = 0627;
},
{
color = 4;
glyphname = "alef-ar.fina";
layers = (
{
layerId = "98B9451C-6456-42E9-9BE3-FFE7D6D9360C";
paths = (
{
closed = 1;
nodes = (
"60 100 OFFCURVE",
"99 453 OFFCURVE",
"99 681 CURVE SMOOTH",
"99 693 OFFCURVE",
"92 700 OFFCURVE",
"82 700 CURVE SMOOTH",
"61 700 OFFCURVE",
"16 600 OFFCURVE",
"16 582 CURVE SMOOTH",
"16 100 OFFCURVE",
"43 0 OFFCURVE",
"160 0 CURVE",
"160 100 LINE"
);
}
);
width = 160;
}
);
unicode = FE8E;
},
{
color = 4;
glyphname = "behDotless-ar";
layers = (
{
layerId = "98B9451C-6456-42E9-9BE3-FFE7D6D9360C";
paths = (
{
closed = 1;
nodes = (
"102 -17 OFFCURVE",
"30 114 OFFCURVE",
"30 233 CURVE SMOOTH",
"30 303 OFFCURVE",
"85 381 OFFCURVE",
"98 381 CURVE SMOOTH",
"110 381 OFFCURVE",
"115 371 OFFCURVE",
"115 361 CURVE SMOOTH",
"115 351 OFFCURVE",
"100 323 OFFCURVE",
"100 273 CURVE SMOOTH",
"100 179 OFFCURVE",
"144 107 OFFCURVE",
"523 107 CURVE SMOOTH",
"759 107 OFFCURVE",
"1040 154 OFFCURVE",
"1040 203 CURVE SMOOTH",
"1040 231 OFFCURVE",
"999 278 OFFCURVE",
"999 304 CURVE SMOOTH",
"999 331 OFFCURVE",
"1044 421 OFFCURVE",
"1061 421 CURVE SMOOTH",
"1082 421 OFFCURVE",
"1127 320 OFFCURVE",
"1127 272 CURVE SMOOTH",
"1127 224 OFFCURVE",
"1110 181 OFFCURVE",
"1079 136 CURVE SMOOTH",
"1014 43 OFFCURVE",
"842 -17 OFFCURVE",
"377 -17 CURVE SMOOTH"
);
}
);
width = 1177;
}
);
unicode = 066E;
},
{
color = 4;
glyphname = "behDotless-ar.fina";
layers = (
{
layerId = "98B9451C-6456-42E9-9BE3-FFE7D6D9360C";
paths = (
{
closed = 1;
nodes = (
"102 -17 OFFCURVE",
"30 114 OFFCURVE",
"30 233 CURVE SMOOTH",
"30 303 OFFCURVE",
"85 381 OFFCURVE",
"98 381 CURVE SMOOTH",
"110 381 OFFCURVE",
"115 371 OFFCURVE",
"115 361 CURVE SMOOTH",
"115 351 OFFCURVE",
"100 323 OFFCURVE",
"100 273 CURVE SMOOTH",
"100 179 OFFCURVE",
"144 107 OFFCURVE",
"523 107 CURVE SMOOTH",
"759 107 OFFCURVE",
"1040 154 OFFCURVE",
"1040 203 CURVE SMOOTH",
"1040 231 OFFCURVE",
"999 278 OFFCURVE",
"999 304 CURVE SMOOTH",
"999 331 OFFCURVE",
"1044 421 OFFCURVE",
"1061 421 CURVE SMOOTH",
"1087 421 OFFCURVE",
"1173 100 OFFCURVE",
"1227 100 CURVE",
"1227 0 LINE",
"1157 0 OFFCURVE",
"1092 135 OFFCURVE",
"1079 136 CURVE SMOOTH",
"1063 137 OFFCURVE",
"942 -17 OFFCURVE",
"377 -17 CURVE SMOOTH"
);
}
);
width = 1227;
}
);
},
{
color = 4;
glyphname = "behDotless-ar.medi";
layers = (
{
layerId = "98B9451C-6456-42E9-9BE3-FFE7D6D9360C";
paths = (
{
closed = 1;
nodes = (
"131 0 OFFCURVE",
"142 115 OFFCURVE",
"130 115 CURVE SMOOTH",
"118 115 OFFCURVE",
"120 0 OFFCURVE",
"0 0 CURVE",
"0 100 LINE",
"86 100 OFFCURVE",
"137 232 OFFCURVE",
"167 232 CURVE SMOOTH",
"192 232 OFFCURVE",
"118 100 OFFCURVE",
"320 100 CURVE",
"320 0 LINE"
);
}
);
width = 320;
}
);
},
{
color = 4;
glyphname = "behDotless-ar.init";
layers = (
{
layerId = "98B9451C-6456-42E9-9BE3-FFE7D6D9360C";
paths = (
{
closed = 1;
nodes = (
"0 100 LINE",
"126 100 OFFCURVE",
"187 154 OFFCURVE",
"187 203 CURVE SMOOTH",
"187 231 OFFCURVE",
"146 278 OFFCURVE",
"146 304 CURVE SMOOTH",
"146 331 OFFCURVE",
"191 421 OFFCURVE",
"208 421 CURVE SMOOTH",
"229 421 OFFCURVE",
"274 320 OFFCURVE",
"274 272 CURVE SMOOTH",
"274 224 OFFCURVE",
"257 181 OFFCURVE",
"226 136 CURVE SMOOTH",
"161 43 OFFCURVE",
"65 0 OFFCURVE",
"0 0 CURVE"
);
}
);
width = 300;
}
);
},
{
color = 4;
glyphname = "hah-ar";
layers = (
{
layerId = "98B9451C-6456-42E9-9BE3-FFE7D6D9360C";
paths = (
{
closed = 1;
nodes = (
"-9 307 LINE",
"5 332 OFFCURVE",
"17 356 OFFCURVE",
"48 356 CURVE SMOOTH",
"109 356 OFFCURVE",
"200 318 OFFCURVE",
"312 234 CURVE",
"312 224 LINE",
"276 219 OFFCURVE",
"182 214 OFFCURVE",
"88 164 CURVE SMOOTH",
"5 120 OFFCURVE",
"-57 61 OFFCURVE",
"-58 -73 CURVE SMOOTH",
"-60 -291 OFFCURVE",
"25 -410 OFFCURVE",
"276 -410 CURVE SMOOTH",
"392 -410 OFFCURVE",
"501 -356 OFFCURVE",
"575 -285 CURVE",
"563 -262 LINE",
"495 -307 OFFCURVE",
"428 -320 OFFCURVE",
"311 -320 CURVE SMOOTH",
"141 -320 OFFCURVE",
"88 -188 OFFCURVE",
"88 -47 CURVE SMOOTH",
"88 91 OFFCURVE",
"253 144 OFFCURVE",
"412 144 CURVE SMOOTH",
"452 144 OFFCURVE",
"485 136 OFFCURVE",
"515 127 CURVE",
"549 234 LINE",
"427 264 OFFCURVE",
"219 456 OFFCURVE",
"116 456 CURVE SMOOTH",
"18 456 OFFCURVE",
"-19 377 OFFCURVE",
"-34 325 CURVE"
);
}
);
width = 615;
}
);
unicode = 062D;
},
{
color = 4;
glyphname = "hah-ar.fina";
layers = (
{
layerId = "98B9451C-6456-42E9-9BE3-FFE7D6D9360C";
paths = (
{
closed = 1;
nodes = (
"84 254 LINE",
"98 279 OFFCURVE",
"118 308 OFFCURVE",
"149 308 CURVE SMOOTH",
"210 308 OFFCURVE",
"271 287 OFFCURVE",
"374 246 CURVE",
"374 236 LINE",
"141 231 OFFCURVE",
"50 71 OFFCURVE",
"50 -5 CURVE SMOOTH",
"50 -204 OFFCURVE",
"93 -350 OFFCURVE",
"352 -350 CURVE SMOOTH",
"451 -350 OFFCURVE",
"495 -269 OFFCURVE",
"527 -207 CURVE",
"511 -187 LINE",
"467 -224 OFFCURVE",
"425 -244 OFFCURVE",
"352 -244 CURVE SMOOTH",
"210 -244 OFFCURVE",
"148 -92 OFFCURVE",
"148 -21 CURVE SMOOTH",
"148 67 OFFCURVE",
"184 158 OFFCURVE",
"256 158 CURVE SMOOTH",
"329 158 OFFCURVE",
"374 156 OFFCURVE",
"416 156 CURVE",
"430 94 OFFCURVE",
"461 8 OFFCURVE",
"645 0 CURVE",
"645 100 LINE",
"540 100 OFFCURVE",
"509 116 OFFCURVE",
"474 156 CURVE",
"501 158 OFFCURVE",
"544 160 OFFCURVE",
"574 151 CURVE",
"611 267 LINE",
"489 297 OFFCURVE",
"311 408 OFFCURVE",
"208 408 CURVE SMOOTH",
"110 408 OFFCURVE",
"74 324 OFFCURVE",
"59 272 CURVE"
);
}
);
width = 645;
}
);
unicode = FEA2;
},
{
color = 4;
glyphname = "hah-ar.medi";
layers = (
{
layerId = "98B9451C-6456-42E9-9BE3-FFE7D6D9360C";
paths = (
{
closed = 1;
nodes = (
"129 244 LINE",
"143 269 OFFCURVE",
"163 298 OFFCURVE",
"194 298 CURVE SMOOTH",
"255 298 OFFCURVE",
"316 277 OFFCURVE",
"419 236 CURVE",
"419 226 LINE",
"305 137 OFFCURVE",
"188 100 OFFCURVE",
"0 100 CURVE",
"0 0 LINE",
"128 0 OFFCURVE",
"329 12 OFFCURVE",
"454 137 CURVE",
"482 86 OFFCURVE",
"506 8 OFFCURVE",
"730 0 CURVE",
"730 100 LINE",
"585 100 OFFCURVE",
"554 106 OFFCURVE",
"519 146 CURVE",
"546 148 OFFCURVE",
"589 150 OFFCURVE",
"619 141 CURVE",
"656 257 LINE",
"534 287 OFFCURVE",
"356 398 OFFCURVE",
"253 398 CURVE SMOOTH",
"155 398 OFFCURVE",
"119 314 OFFCURVE",
"104 262 CURVE"
);
}
);
width = 730;
}
);
unicode = FEA4;
},
{
color = 4;
glyphname = "hah-ar.init";
layers = (
{
layerId = "98B9451C-6456-42E9-9BE3-FFE7D6D9360C";
paths = (
{
closed = 1;
nodes = (
"93 294 OFFCURVE",
"110 290 OFFCURVE",
"118 290 CURVE SMOOTH",
"125 290 OFFCURVE",
"136 328 OFFCURVE",
"155 328 CURVE SMOOTH",
"286 328 OFFCURVE",
"399 244 OFFCURVE",
"399 232 CURVE SMOOTH",
"399 225 OFFCURVE",
"396 221 OFFCURVE",
"389 221 CURVE SMOOTH",
"303 221 OFFCURVE",
"72 100 OFFCURVE",
"0 100 CURVE",
"0 0 LINE",
"148 0 OFFCURVE",
"360 146 OFFCURVE",
"519 146 CURVE SMOOTH",
"559 146 OFFCURVE",
"585 141 OFFCURVE",
"615 134 CURVE",
"639 226 LINE",
"474 261 OFFCURVE",
"336 418 OFFCURVE",
"213 418 CURVE SMOOTH",
"136 418 OFFCURVE",
"93 358 OFFCURVE",
"93 304 CURVE SMOOTH"
);
}
);
width = 750;
},
{
associatedMasterId = "98B9451C-6456-42E9-9BE3-FFE7D6D9360C";
layerId = "0198DF01-22B9-40F5-93DA-E3A08636B5E3";
name = "Jul 19 20, 15:07";
paths = (
{
closed = 1;
nodes = (
"773 0 OFFCURVE",
"827 55 OFFCURVE",
"827 70 CURVE SMOOTH",
"827 86 OFFCURVE",
"773 140 OFFCURVE",
"757 140 CURVE SMOOTH",
"741 140 OFFCURVE",
"687 86 OFFCURVE",
"687 70 CURVE SMOOTH",
"687 55 OFFCURVE",
"741 0 OFFCURVE",
"757 0 CURVE SMOOTH"
);
},
{
closed = 1;
nodes = (
"773 140 OFFCURVE",
"827 195 OFFCURVE",
"827 210 CURVE SMOOTH",
"827 226 OFFCURVE",
"773 280 OFFCURVE",
"757 280 CURVE SMOOTH",
"741 280 OFFCURVE",
"687 226 OFFCURVE",
"687 210 CURVE SMOOTH",
"687 195 OFFCURVE",
"741 140 OFFCURVE",
"757 140 CURVE SMOOTH"
);
},
{
closed = 1;
nodes = (
"773 280 OFFCURVE",
"827 335 OFFCURVE",
"827 350 CURVE SMOOTH",
"827 366 OFFCURVE",
"773 420 OFFCURVE",
"757 420 CURVE SMOOTH",
"741 420 OFFCURVE",
"687 366 OFFCURVE",
"687 350 CURVE SMOOTH",
"687 335 OFFCURVE",
"741 280 OFFCURVE",
"757 280 CURVE SMOOTH"
);
},
{
closed = 1;
nodes = (
"773 420 OFFCURVE",
"827 475 OFFCURVE",
"827 490 CURVE SMOOTH",
"827 506 OFFCURVE",
"773 560 OFFCURVE",
"757 560 CURVE SMOOTH",
"741 560 OFFCURVE",
"687 506 OFFCURVE",
"687 490 CURVE SMOOTH",
"687 475 OFFCURVE",
"741 420 OFFCURVE",
"757 420 CURVE SMOOTH"
);
},
{
closed = 1;
nodes = (
"773 420 OFFCURVE",
"827 475 OFFCURVE",
"827 490 CURVE SMOOTH",
"827 506 OFFCURVE",
"773 560 OFFCURVE",
"757 560 CURVE SMOOTH",
"741 560 OFFCURVE",
"687 506 OFFCURVE",
"687 490 CURVE SMOOTH",
"687 475 OFFCURVE",
"741 420 OFFCURVE",
"757 420 CURVE SMOOTH"
);
},
{
closed = 1;
nodes = (
"773 560 OFFCURVE",
"827 615 OFFCURVE",
"827 630 CURVE SMOOTH",
"827 646 OFFCURVE",
"773 700 OFFCURVE",
"757 700 CURVE SMOOTH",
"741 700 OFFCURVE",
"687 646 OFFCURVE",
"687 630 CURVE SMOOTH",
"687 615 OFFCURVE",
"741 560 OFFCURVE",
"757 560 CURVE SMOOTH"
);
},
{
closed = 1;
nodes = (
"773 700 OFFCURVE",
"827 755 OFFCURVE",
"827 770 CURVE SMOOTH",
"827 786 OFFCURVE",
"773 840 OFFCURVE",
"757 840 CURVE SMOOTH",
"741 840 OFFCURVE",
"687 786 OFFCURVE",
"687 770 CURVE SMOOTH",
"687 755 OFFCURVE",
"741 700 OFFCURVE",
"757 700 CURVE SMOOTH"
);
},
{
closed = 1;
nodes = (
"773 -140 OFFCURVE",
"827 -85 OFFCURVE",
"827 -70 CURVE SMOOTH",
"827 -54 OFFCURVE",
"773 0 OFFCURVE",
"757 0 CURVE SMOOTH",
"741 0 OFFCURVE",
"687 -54 OFFCURVE",
"687 -70 CURVE SMOOTH",
"687 -85 OFFCURVE",
"741 -140 OFFCURVE",
"757 -140 CURVE SMOOTH"
);
},
{
closed = 1;
nodes = (
"773 -280 OFFCURVE",
"827 -225 OFFCURVE",
"827 -210 CURVE SMOOTH",
"827 -194 OFFCURVE",
"773 -140 OFFCURVE",
"757 -140 CURVE SMOOTH",
"741 -140 OFFCURVE",
"687 -194 OFFCURVE",
"687 -210 CURVE SMOOTH",
"687 -225 OFFCURVE",
"741 -280 OFFCURVE",
"757 -280 CURVE SMOOTH"
);
},
{
closed = 1;
nodes = (
"773 -420 OFFCURVE",
"827 -365 OFFCURVE",
"827 -350 CURVE SMOOTH",
"827 -334 OFFCURVE",
"773 -280 OFFCURVE",
"757 -280 CURVE SMOOTH",
"741 -280 OFFCURVE",
"687 -334 OFFCURVE",
"687 -350 CURVE SMOOTH",
"687 -365 OFFCURVE",
"741 -420 OFFCURVE",
"757 -420 CURVE SMOOTH"
);
},
{
closed = 1;
nodes = (
"773 840 OFFCURVE",
"827 895 OFFCURVE",
"827 910 CURVE SMOOTH",
"827 926 OFFCURVE",
"773 980 OFFCURVE",
"757 980 CURVE SMOOTH",
"741 980 OFFCURVE",
"687 926 OFFCURVE",
"687 910 CURVE SMOOTH",
"687 895 OFFCURVE",
"741 840 OFFCURVE",
"757 840 CURVE SMOOTH"
);
}
);
visible = 1;
width = 750;
}
);
unicode = FEA3;
},
{
color = 4;
glyphname = "dal-ar";
layers = (
{
layerId = "98B9451C-6456-42E9-9BE3-FFE7D6D9360C";
paths = (
{
closed = 1;
nodes = (
"38 -10 OFFCURVE",
"20 16 OFFCURVE",
"20 106 CURVE SMOOTH",
"20 129 OFFCURVE",
"28 142 OFFCURVE",
"39 142 CURVE SMOOTH",
"50 142 OFFCURVE",
"64 107 OFFCURVE",
"83 107 CURVE SMOOTH",
"209 107 OFFCURVE",
"384 134 OFFCURVE",
"384 183 CURVE SMOOTH",
"384 211 OFFCURVE",
"187 415 OFFCURVE",
"187 441 CURVE SMOOTH",
"187 468 OFFCURVE",
"232 558 OFFCURVE",
"249 558 CURVE SMOOTH",
"270 558 OFFCURVE",
"471 300 OFFCURVE",
"471 252 CURVE SMOOTH",
"471 204 OFFCURVE",
"454 161 OFFCURVE",
"423 116 CURVE SMOOTH",
"358 23 OFFCURVE",
"247 -10 OFFCURVE",
"72 -10 CURVE SMOOTH"
);
}
);
width = 491;
}
);
unicode = 062F;
},
{
color = 4;
glyphname = "reh-ar";
layers = (
{
layerId = "98B9451C-6456-42E9-9BE3-FFE7D6D9360C";
paths = (
{
closed = 1;
nodes = (
"186 -218 OFFCURVE",
"0 -133 OFFCURVE",
"0 -104 CURVE SMOOTH",
"0 -83 OFFCURVE",
"10 -76 OFFCURVE",
"25 -76 CURVE SMOOTH",
"58 -76 OFFCURVE",
"151 -93 OFFCURVE",
"244 -93 CURVE SMOOTH",
"296 -93 OFFCURVE",
"441 95 OFFCURVE",
"441 144 CURVE SMOOTH",
"441 172 OFFCURVE",
"340 278 OFFCURVE",
"340 304 CURVE SMOOTH",
"340 331 OFFCURVE",
"384 421 OFFCURVE",
"402 421 CURVE SMOOTH",
"423 421 OFFCURVE",
"528 261 OFFCURVE",
"528 213 CURVE SMOOTH",
"528 123 OFFCURVE",
"399 -218 OFFCURVE",
"228 -218 CURVE SMOOTH"
);
}
);
width = 548;
}
);
unicode = 0631;
},
{
color = 4;
glyphname = "reh-ar.fina";
layers = (
{
layerId = "98B9451C-6456-42E9-9BE3-FFE7D6D9360C";
paths = (
{
closed = 1;
nodes = (
"186 -218 OFFCURVE",
"0 -133 OFFCURVE",
"0 -104 CURVE SMOOTH",
"0 -83 OFFCURVE",
"10 -76 OFFCURVE",
"25 -76 CURVE SMOOTH",
"58 -76 OFFCURVE",
"151 -93 OFFCURVE",
"244 -93 CURVE SMOOTH",
"296 -93 OFFCURVE",
"441 95 OFFCURVE",
"441 144 CURVE SMOOTH",
"441 172 OFFCURVE",
"340 278 OFFCURVE",
"340 304 CURVE SMOOTH",
"340 331 OFFCURVE",
"384 421 OFFCURVE",
"402 421 CURVE SMOOTH",
"444 421 OFFCURVE",
"529 100 OFFCURVE",
"642 100 CURVE",
"642 0 LINE",
"576 0 OFFCURVE",
"524 50 OFFCURVE",
"502 51 CURVE SMOOTH",
"485 52 OFFCURVE",
"480 42 OFFCURVE",
"479 40 CURVE SMOOTH",
"427 -83 OFFCURVE",
"336 -218 OFFCURVE",
"228 -218 CURVE SMOOTH"
);
}
);
width = 642;
}
);
unicode = FEAE;
},
{
color = 4;
glyphname = "seen-ar";
layers = (
{
layerId = "98B9451C-6456-42E9-9BE3-FFE7D6D9360C";
paths = (
{
closed = 1;
nodes = (
"28 -300 OFFCURVE",
"0 -214 OFFCURVE",
"0 -102 CURVE SMOOTH",
"0 -80 OFFCURVE",
"42 84 OFFCURVE",
"69 84 CURVE SMOOTH",
"81 84 OFFCURVE",
"86 67 OFFCURVE",
"86 50 CURVE SMOOTH",
"86 -136 OFFCURVE",
"111 -180 OFFCURVE",
"366 -180 CURVE SMOOTH",
"469 -180 OFFCURVE",
"619 -166 OFFCURVE",
"573 1 CURVE SMOOTH",
"560 47 OFFCURVE",
"515 170 OFFCURVE",
"515 188 CURVE SMOOTH",
"515 208 OFFCURVE",
"566 280 OFFCURVE",
"594 280 CURVE SMOOTH",
"619 280 OFFCURVE",
"642 99 OFFCURVE",
"752 99 CURVE SMOOTH",
"797 99 OFFCURVE",
"839 202 OFFCURVE",
"859 237 CURVE SMOOTH",
"868 252 OFFCURVE",
"884 280 OFFCURVE",
"899 280 CURVE SMOOTH",
"915 280 OFFCURVE",
"920 264 OFFCURVE",
"920 237 CURVE SMOOTH",
"920 121 OFFCURVE",
"1008 99 OFFCURVE",
"1049 99 CURVE SMOOTH",
"1074 99 OFFCURVE",
"1110 129 OFFCURVE",
"1110 145 CURVE SMOOTH",
"1110 176 OFFCURVE",
"1014 305 OFFCURVE",
"1014 348 CURVE SMOOTH",
"1014 370 OFFCURVE",
"1067 420 OFFCURVE",
"1087 420 CURVE SMOOTH",
"1102 420 OFFCURVE",
"1190 242 OFFCURVE",
"1190 195 CURVE SMOOTH",
"1190 74 OFFCURVE",
"1137 -10 OFFCURVE",
"1009 -10 CURVE SMOOTH",
"942 -10 OFFCURVE",
"871 80 OFFCURVE",
"854 80 CURVE SMOOTH",
"838 80 OFFCURVE",
"787 -10 OFFCURVE",
"712 -10 CURVE SMOOTH",
"666 -10 OFFCURVE",
"659 23 OFFCURVE",
"649 23 CURVE SMOOTH",
"644 23 OFFCURVE",
"629 22 OFFCURVE",
"629 0 CURVE SMOOTH",
"629 -114 OFFCURVE",
"599 -300 OFFCURVE",
"312 -300 CURVE SMOOTH"
);
}
);
width = 1247;
},
{
associatedMasterId = "98B9451C-6456-42E9-9BE3-FFE7D6D9360C";
layerId = "4FED0EF7-3A3C-40FD-9D96-074A1A57ED17";
name = "Jul 19 20, 12:56";
paths = (
{
closed = 1;
nodes = (
"1473 0 OFFCURVE",
"1527 55 OFFCURVE",
"1527 70 CURVE SMOOTH",
"1527 86 OFFCURVE",
"1473 140 OFFCURVE",
"1457 140 CURVE SMOOTH",
"1441 140 OFFCURVE",
"1387 86 OFFCURVE",
"1387 70 CURVE SMOOTH",
"1387 55 OFFCURVE",
"1441 0 OFFCURVE",
"1457 0 CURVE SMOOTH"
);
},
{
closed = 1;
nodes = (
"1473 140 OFFCURVE",
"1527 195 OFFCURVE",
"1527 210 CURVE SMOOTH",
"1527 226 OFFCURVE",
"1473 280 OFFCURVE",
"1457 280 CURVE SMOOTH",
"1441 280 OFFCURVE",
"1387 226 OFFCURVE",
"1387 210 CURVE SMOOTH",
"1387 195 OFFCURVE",
"1441 140 OFFCURVE",
"1457 140 CURVE SMOOTH"
);
},
{
closed = 1;
nodes = (
"1473 280 OFFCURVE",
"1527 335 OFFCURVE",
"1527 350 CURVE SMOOTH",
"1527 366 OFFCURVE",
"1473 420 OFFCURVE",
"1457 420 CURVE SMOOTH",
"1441 420 OFFCURVE",
"1387 366 OFFCURVE",
"1387 350 CURVE SMOOTH",
"1387 335 OFFCURVE",
"1441 280 OFFCURVE",
"1457 280 CURVE SMOOTH"
);
},
{
closed = 1;
nodes = (
"1473 420 OFFCURVE",
"1527 475 OFFCURVE",
"1527 490 CURVE SMOOTH",
"1527 506 OFFCURVE",
"1473 560 OFFCURVE",
"1457 560 CURVE SMOOTH",
"1441 560 OFFCURVE",
"1387 506 OFFCURVE",
"1387 490 CURVE SMOOTH",
"1387 475 OFFCURVE",
"1441 420 OFFCURVE",
"1457 420 CURVE SMOOTH"
);
},
{
closed = 1;
nodes = (
"1473 420 OFFCURVE",
"1527 475 OFFCURVE",
"1527 490 CURVE SMOOTH",
"1527 506 OFFCURVE",
"1473 560 OFFCURVE",
"1457 560 CURVE SMOOTH",
"1441 560 OFFCURVE",
"1387 506 OFFCURVE",
"1387 490 CURVE SMOOTH",
"1387 475 OFFCURVE",
"1441 420 OFFCURVE",
"1457 420 CURVE SMOOTH"
);
},
{
closed = 1;
nodes = (
"1473 560 OFFCURVE",
"1527 615 OFFCURVE",
"1527 630 CURVE SMOOTH",
"1527 646 OFFCURVE",
"1473 700 OFFCURVE",
"1457 700 CURVE SMOOTH",
"1441 700 OFFCURVE",
"1387 646 OFFCURVE",
"1387 630 CURVE SMOOTH",
"1387 615 OFFCURVE",
"1441 560 OFFCURVE",
"1457 560 CURVE SMOOTH"
);
},
{
closed = 1;
nodes = (
"1473 700 OFFCURVE",
"1527 755 OFFCURVE",
"1527 770 CURVE SMOOTH",
"1527 786 OFFCURVE",
"1473 840 OFFCURVE",
"1457 840 CURVE SMOOTH",
"1441 840 OFFCURVE",
"1387 786 OFFCURVE",
"1387 770 CURVE SMOOTH",
"1387 755 OFFCURVE",
"1441 700 OFFCURVE",
"1457 700 CURVE SMOOTH"
);
},
{
closed = 1;
nodes = (
"1473 -140 OFFCURVE",
"1527 -85 OFFCURVE",
"1527 -70 CURVE SMOOTH",
"1527 -54 OFFCURVE",
"1473 0 OFFCURVE",
"1457 0 CURVE SMOOTH",
"1441 0 OFFCURVE",
"1387 -54 OFFCURVE",
"1387 -70 CURVE SMOOTH",
"1387 -85 OFFCURVE",
"1441 -140 OFFCURVE",
"1457 -140 CURVE SMOOTH"
);
},
{
closed = 1;
nodes = (
"1473 -280 OFFCURVE",
"1527 -225 OFFCURVE",
"1527 -210 CURVE SMOOTH",
"1527 -194 OFFCURVE",
"1473 -140 OFFCURVE",
"1457 -140 CURVE SMOOTH",
"1441 -140 OFFCURVE",
"1387 -194 OFFCURVE",
"1387 -210 CURVE SMOOTH",
"1387 -225 OFFCURVE",
"1441 -280 OFFCURVE",
"1457 -280 CURVE SMOOTH"
);
},
{
closed = 1;
nodes = (
"1473 -420 OFFCURVE",
"1527 -365 OFFCURVE",
"1527 -350 CURVE SMOOTH",
"1527 -334 OFFCURVE",
"1473 -280 OFFCURVE",
"1457 -280 CURVE SMOOTH",
"1441 -280 OFFCURVE",
"1387 -334 OFFCURVE",
"1387 -350 CURVE SMOOTH",
"1387 -365 OFFCURVE",
"1441 -420 OFFCURVE",
"1457 -420 CURVE SMOOTH"
);
},
{
closed = 1;
nodes = (
"1473 840 OFFCURVE",
"1527 895 OFFCURVE",
"1527 910 CURVE SMOOTH",
"1527 926 OFFCURVE",
"1473 980 OFFCURVE",
"1457 980 CURVE SMOOTH",
"1441 980 OFFCURVE",
"1387 926 OFFCURVE",
"1387 910 CURVE SMOOTH",
"1387 895 OFFCURVE",
"1441 840 OFFCURVE",
"1457 840 CURVE SMOOTH"
);
},
{
closed = 1;
nodes = (
"636 0 OFFCURVE",
"690 55 OFFCURVE",
"690 70 CURVE SMOOTH",
"690 86 OFFCURVE",
"636 140 OFFCURVE",
"620 140 CURVE SMOOTH",
"604 140 OFFCURVE",
"550 86 OFFCURVE",
"550 70 CURVE SMOOTH",
"550 55 OFFCURVE",
"604 0 OFFCURVE",
"620 0 CURVE SMOOTH"
);
},
{
closed = 1;
nodes = (
"496 0 OFFCURVE",
"550 55 OFFCURVE",
"550 70 CURVE SMOOTH",
"550 86 OFFCURVE",
"496 140 OFFCURVE",
"480 140 CURVE SMOOTH",
"464 140 OFFCURVE",
"410 86 OFFCURVE",
"410 70 CURVE SMOOTH",
"410 55 OFFCURVE",
"464 0 OFFCURVE",
"480 0 CURVE SMOOTH"
);
},
{
closed = 1;
nodes = (
"356 0 OFFCURVE",
"410 55 OFFCURVE",
"410 70 CURVE SMOOTH",
"410 86 OFFCURVE",
"356 140 OFFCURVE",
"340 140 CURVE SMOOTH",
"324 140 OFFCURVE",
"270 86 OFFCURVE",
"270 70 CURVE SMOOTH",
"270 55 OFFCURVE",
"324 0 OFFCURVE",
"340 0 CURVE SMOOTH"
);
},
{
closed = 1;
nodes = (
"496 -140 OFFCURVE",
"550 -85 OFFCURVE",
"550 -70 CURVE SMOOTH",
"550 -54 OFFCURVE",
"496 0 OFFCURVE",
"480 0 CURVE SMOOTH",
"464 0 OFFCURVE",
"410 -54 OFFCURVE",
"410 -70 CURVE SMOOTH",
"410 -85 OFFCURVE",
"464 -140 OFFCURVE",
"480 -140 CURVE SMOOTH"
);
},
{
closed = 1;
nodes = (
"496 140 OFFCURVE",
"550 195 OFFCURVE",
"550 210 CURVE SMOOTH",
"550 226 OFFCURVE",
"496 280 OFFCURVE",
"480 280 CURVE SMOOTH",
"464 280 OFFCURVE",
"410 226 OFFCURVE",
"410 210 CURVE SMOOTH",
"410 195 OFFCURVE",
"464 140 OFFCURVE",
"480 140 CURVE SMOOTH"
);
}
);
visible = 1;
width = 1387;
}
);
unicode = 0633;
},
{
color = 4;
glyphname = "seen-ar.fina";
layers = (
{
layerId = "98B9451C-6456-42E9-9BE3-FFE7D6D9360C";
paths = (
{
closed = 1;
nodes = (
"28 -300 OFFCURVE",
"0 -214 OFFCURVE",
"0 -102 CURVE SMOOTH",
"0 -80 OFFCURVE",
"42 84 OFFCURVE",
"69 84 CURVE SMOOTH",
"81 84 OFFCURVE",
"86 67 OFFCURVE",
"86 50 CURVE SMOOTH",
"86 -136 OFFCURVE",
"111 -180 OFFCURVE",
"366 -180 CURVE SMOOTH",
"469 -180 OFFCURVE",
"619 -166 OFFCURVE",
"573 1 CURVE SMOOTH",
"560 47 OFFCURVE",
"515 170 OFFCURVE",
"515 188 CURVE SMOOTH",
"515 208 OFFCURVE",
"566 280 OFFCURVE",
"594 280 CURVE SMOOTH",
"619 280 OFFCURVE",
"642 99 OFFCURVE",
"752 99 CURVE SMOOTH",
"797 99 OFFCURVE",
"839 202 OFFCURVE",
"859 237 CURVE SMOOTH",
"868 252 OFFCURVE",
"884 280 OFFCURVE",
"899 280 CURVE SMOOTH",
"915 280 OFFCURVE",
"920 264 OFFCURVE",
"920 237 CURVE SMOOTH",
"920 121 OFFCURVE",
"1008 99 OFFCURVE",
"1049 99 CURVE SMOOTH",
"1074 99 OFFCURVE",
"1110 129 OFFCURVE",
"1110 145 CURVE SMOOTH",
"1110 176 OFFCURVE",
"1014 305 OFFCURVE",
"1014 348 CURVE SMOOTH",
"1014 370 OFFCURVE",
"1067 420 OFFCURVE",
"1087 420 CURVE SMOOTH",
"1134 420 OFFCURVE",
"1207 100 OFFCURVE",
"1306 100 CURVE",
"1306 0 LINE",
"1190 0 OFFCURVE",
"1143 17 OFFCURVE",
"1113 17 CURVE SMOOTH",
"1081 17 OFFCURVE",
"1052 -10 OFFCURVE",
"1009 -10 CURVE SMOOTH",
"942 -10 OFFCURVE",
"871 80 OFFCURVE",
"854 80 CURVE SMOOTH",
"838 80 OFFCURVE",
"787 -10 OFFCURVE",
"712 -10 CURVE SMOOTH",
"666 -10 OFFCURVE",
"659 23 OFFCURVE",
"649 23 CURVE SMOOTH",
"644 23 OFFCURVE",
"629 22 OFFCURVE",
"629 0 CURVE SMOOTH",
"629 -114 OFFCURVE",
"599 -300 OFFCURVE",
"312 -300 CURVE SMOOTH"
);
}
);
width = 1306;
}
);
unicode = FEB2;
},
{
color = 4;
glyphname = "seen-ar.medi";
layers = (
{
layerId = "98B9451C-6456-42E9-9BE3-FFE7D6D9360C";
paths = (
{
closed = 1;
nodes = (
"0 0 CURVE",
"0 100 LINE",
"143 100 OFFCURVE",
"159 280 OFFCURVE",
"211 280 CURVE SMOOTH",
"219 280 OFFCURVE",
"226 270 OFFCURVE",
"226 259 CURVE SMOOTH",
"226 238 OFFCURVE",
"210 193 OFFCURVE",
"210 156 CURVE SMOOTH",
"210 124 OFFCURVE",
"220 99 OFFCURVE",
"259 99 CURVE SMOOTH",
"304 99 OFFCURVE",
"346 202 OFFCURVE",
"366 237 CURVE SMOOTH",
"375 252 OFFCURVE",
"391 280 OFFCURVE",
"406 280 CURVE SMOOTH",
"422 280 OFFCURVE",
"427 264 OFFCURVE",
"427 237 CURVE SMOOTH",
"427 121 OFFCURVE",
"515 99 OFFCURVE",
"556 99 CURVE SMOOTH",
"581 99 OFFCURVE",
"617 129 OFFCURVE",
"617 145 CURVE SMOOTH",
"617 176 OFFCURVE",
"521 305 OFFCURVE",
"521 348 CURVE SMOOTH",
"521 370 OFFCURVE",
"574 420 OFFCURVE",
"594 420 CURVE SMOOTH",
"614 420 OFFCURVE",
"676 101 OFFCURVE",
"787 101 CURVE",
"847 100 LINE",
"847 0 LINE",
"742 0 OFFCURVE",
"675 15 OFFCURVE",
"658 15 CURVE SMOOTH",
"637 15 OFFCURVE",
"557 -10 OFFCURVE",
"516 -10 CURVE SMOOTH",
"449 -10 OFFCURVE",
"378 80 OFFCURVE",
"361 80 CURVE SMOOTH",
"345 80 OFFCURVE",
"294 -10 OFFCURVE",
"219 -10 CURVE SMOOTH",
"173 -10 OFFCURVE",
"169 23 OFFCURVE",
"156 23 CURVE SMOOTH",
"144 23 OFFCURVE",
"99 -1 OFFCURVE"
);
}
);
width = 847;
}
);
unicode = FEB4;
},
{
color = 4;
glyphname = "seen-ar.init";
layers = (
{
layerId = "98B9451C-6456-42E9-9BE3-FFE7D6D9360C";
paths = (
{
closed = 1;
nodes = (
"0 0 CURVE",
"0 100 LINE",
"43 100 OFFCURVE",
"79 280 OFFCURVE",
"131 280 CURVE SMOOTH",
"139 280 OFFCURVE",
"146 270 OFFCURVE",
"146 259 CURVE SMOOTH",
"146 238 OFFCURVE",
"130 193 OFFCURVE",
"130 156 CURVE SMOOTH",
"130 124 OFFCURVE",
"140 99 OFFCURVE",
"179 99 CURVE SMOOTH",
"224 99 OFFCURVE",
"266 202 OFFCURVE",
"286 237 CURVE SMOOTH",
"295 252 OFFCURVE",
"311 280 OFFCURVE",
"326 280 CURVE SMOOTH",
"342 280 OFFCURVE",
"347 264 OFFCURVE",
"347 237 CURVE SMOOTH",
"347 121 OFFCURVE",
"435 99 OFFCURVE",
"476 99 CURVE SMOOTH",
"501 99 OFFCURVE",
"537 129 OFFCURVE",
"537 145 CURVE SMOOTH",
"537 176 OFFCURVE",
"441 305 OFFCURVE",
"441 348 CURVE SMOOTH",
"441 370 OFFCURVE",
"494 420 OFFCURVE",
"514 420 CURVE SMOOTH",
"529 420 OFFCURVE",
"617 242 OFFCURVE",
"617 195 CURVE SMOOTH",
"617 74 OFFCURVE",
"564 -10 OFFCURVE",
"436 -10 CURVE SMOOTH",
"369 -10 OFFCURVE",
"298 80 OFFCURVE",
"281 80 CURVE SMOOTH",
"265 80 OFFCURVE",
"214 -10 OFFCURVE",
"139 -10 CURVE SMOOTH",
"93 -10 OFFCURVE",
"89 23 OFFCURVE",
"76 23 CURVE SMOOTH",
"64 23 OFFCURVE",
"59 -1 OFFCURVE"
);
}
);
width = 637;
}
);
unicode = FEB3;
},
{
glyphname = "ain-ar.medi";
layers = (
{
layerId = "98B9451C-6456-42E9-9BE3-FFE7D6D9360C";
paths = (
{
closed = 1;
nodes = (
"524 129 LINE",
"475 129 LINE",
"475 157 LINE",
"516 204 LINE",
"598 434 LINE",
"366 479 LINE",
"90 459 LINE",
"43 412 LINE",
"58 330 LINE",
"195 258 LINE",
"262 178 LINE",
"262 141 LINE",
"148 104 LINE",
"19 131 LINE",
"16 10 LINE",
"97 -20 LINE",
"186 16 LINE",
"349 82 LINE",
"524 -61 LINE",
"605 8 LINE",
"598 122 LINE"
);
}
);
width = 615;
}
);
unicode = FECC;
},
{
glyphname = "ain-ar.init";
layers = (
{
layerId = "98B9451C-6456-42E9-9BE3-FFE7D6D9360C";
paths = (
{
closed = 1;
nodes = (
"502 420 LINE",
"386 501 LINE",
"285 488 LINE",
"156 279 LINE",
"141 204 LINE",
"220 148 LINE",
"264 142 LINE",
"195 116 LINE",
"129 109 LINE",
"8 112 LINE",
"10 11 LINE",
"106 9 LINE",
"193 14 LINE",
"442 75 LINE",
"583 161 LINE",
"547 238 LINE",
"470 195 LINE",
"369 181 LINE",
"254 211 LINE",
"201 256 LINE",
"299 357 LINE",
"403 371 LINE",
"502 334 LINE",
"540 373 LINE"
);
}
);
width = 615;
}
);
unicode = FECB;
},
{
glyphname = "fehDotless-ar.medi";
layers = (
{
layerId = "98B9451C-6456-42E9-9BE3-FFE7D6D9360C";
paths = (
{
closed = 1;
nodes = (
"1 0 LINE",
"50 0 OFFCURVE",
"93 -9 OFFCURVE",
"149 -9 CURVE SMOOTH",
"199 -9 OFFCURVE",
"266 39 OFFCURVE",
"287 39 CURVE SMOOTH",
"307 39 OFFCURVE",
"361 -5 OFFCURVE",
"383 -5 CURVE SMOOTH",
"461 -3 OFFCURVE",
"540 -2 OFFCURVE",
"618 0 CURVE",
"618 100 LINE",
"563 100 OFFCURVE",
"529 86 OFFCURVE",
"475 84 CURVE SMOOTH",
"453 83 OFFCURVE",
"430 81 OFFCURVE",
"430 107 CURVE SMOOTH",
"430 128 OFFCURVE",
"560 179 OFFCURVE",
"560 201 CURVE SMOOTH",
"560 347 OFFCURVE",
"505 608 OFFCURVE",
"408 608 CURVE SMOOTH",
"287 608 OFFCURVE",
"79 426 OFFCURVE",
"79 314 CURVE SMOOTH",
"79 227 OFFCURVE",
"173 130 OFFCURVE",
"173 113 CURVE SMOOTH",
"173 100 OFFCURVE",
"127 98 OFFCURVE",
"93 98 CURVE SMOOTH",
"62 98 OFFCURVE",
"26 100 OFFCURVE",
"1 100 CURVE"
);
},
{
closed = 1;
nodes = (
"362 159 OFFCURVE",
"159 289 OFFCURVE",
"159 322 CURVE SMOOTH",
"159 357 OFFCURVE",
"300 426 OFFCURVE",
"351 426 CURVE SMOOTH",
"401 426 OFFCURVE",
"473 312 OFFCURVE",
"473 242 CURVE SMOOTH",
"473 218 OFFCURVE",
"401 159 OFFCURVE",
"383 159 CURVE SMOOTH"
);
}
);
width = 615;
}
);
},
{
glyphname = "kaf-ar";
layers = (
{
layerId = "98B9451C-6456-42E9-9BE3-FFE7D6D9360C";
paths = (
{
closed = 1;
nodes = (
"1021 22 LINE",
"966 37 LINE",
"850 -25 LINE SMOOTH",
"788 -57 OFFCURVE",
"683 -121 OFFCURVE",
"669 -126 CURVE",
"429 -145 LINE",
"175 -118 LINE",
"70 -44 LINE",
"14 59 LINE",
"29 182 LINE",
"74 263 LINE",
"115 247 LINE",
"120 180 LINE",
"145 54 LINE",
"286 14 LINE",
"464 10 LINE",
"745 60 LINE",
"893 150 LINE",
"869 416 LINE",
"851 532 LINE",
"825 644 LINE",
"819 776 LINE",
"847 818 LINE",
"928 808 LINE",
"966 734 LINE",
"1005 304 LINE",
"1009 154 LINE",
"1021 133 LINE"
);
},
{
closed = 1;
nodes = (
"587 461 LINE",
"556 396 LINE",
"614 369 LINE",
"665 296 LINE",
"665 239 LINE",
"519 129 LINE",
"488 145 LINE",
"519 196 LINE",
"506 216 LINE",
"446 256 LINE",
"419 326 LINE",
"477 408 LINE",
"555 481 LINE"
);
}
);
width = 1036;
}
);
unicode = 0643;
},
{
glyphname = "kaf-ar.fina";
layers = (
{
layerId = "98B9451C-6456-42E9-9BE3-FFE7D6D9360C";
paths = (
{
closed = 1;
nodes = (
"1021 22 LINE",
"966 37 LINE",
"850 -25 LINE SMOOTH",
"788 -57 OFFCURVE",
"683 -121 OFFCURVE",
"669 -126 CURVE",
"429 -145 LINE",
"175 -118 LINE",
"70 -44 LINE",
"14 59 LINE",
"29 182 LINE",
"74 263 LINE",
"115 247 LINE",
"120 180 LINE",
"145 54 LINE",
"286 14 LINE",
"464 10 LINE",
"745 60 LINE",
"893 150 LINE",
"869 416 LINE",
"851 532 LINE",
"825 644 LINE",
"819 776 LINE",
"847 818 LINE",
"927 808 LINE",
"966 734 LINE",
"1005 304 LINE",
"1009 154 LINE",
"1021 133 LINE"
);
},
{
closed = 1;
nodes = (
"587 461 LINE",
"556 396 LINE",
"614 369 LINE",
"665 296 LINE",
"665 239 LINE",
"519 129 LINE",
"488 145 LINE",
"519 195 LINE",
"506 216 LINE",
"446 256 LINE",
"419 326 LINE",
"477 407 LINE",
"555 481 LINE"
);
}
);
width = 1036;
}
);
unicode = FEDA;
},
{
glyphname = "kaf-ar.init";
layers = (
{
layerId = "98B9451C-6456-42E9-9BE3-FFE7D6D9360C";
paths = (
{
closed = 1;
nodes = (
"0 0 LINE",
"79 0 OFFCURVE",
"307 8 OFFCURVE",
"386 8 CURVE SMOOTH",
"454 8 OFFCURVE",
"528 -8 OFFCURVE",
"596 -8 CURVE SMOOTH",
"644 -8 OFFCURVE",
"742 102 OFFCURVE",
"742 183 CURVE SMOOTH",
"742 240 OFFCURVE",
"630 300 OFFCURVE",
"548 300 CURVE SMOOTH",
"412 300 OFFCURVE",
"232 271 OFFCURVE",
"166 271 CURVE SMOOTH",
"139 271 OFFCURVE",
"128 284 OFFCURVE",
"128 298 CURVE SMOOTH",
"128 336 OFFCURVE",
"281 412 OFFCURVE",
"344 412 CURVE SMOOTH",
"366 412 OFFCURVE",
"384 392 OFFCURVE",
"401 392 CURVE SMOOTH",
"420 392 OFFCURVE",
"469 432 OFFCURVE",
"469 449 CURVE SMOOTH",
"469 471 OFFCURVE",
"390 512 OFFCURVE",
"356 512 CURVE SMOOTH",
"289 512 OFFCURVE",
"69 327 OFFCURVE",
"58 308 CURVE SMOOTH",
"47 288 OFFCURVE",
"37 264 OFFCURVE",
"37 231 CURVE SMOOTH",
"37 213 OFFCURVE",
"65 177 OFFCURVE",
"97 177 CURVE SMOOTH",
"242 177 OFFCURVE",
"394 204 OFFCURVE",
"502 204 CURVE SMOOTH",
"636 204 OFFCURVE",
"658 150 OFFCURVE",
"658 112 CURVE SMOOTH",
"658 103 OFFCURVE",
"649 97 OFFCURVE",
"634 97 CURVE SMOOTH",
"548 97 OFFCURVE",
"433 107 OFFCURVE",
"338 107 CURVE SMOOTH",
"253 107 OFFCURVE",
"79 99 OFFCURVE",
"0 100 CURVE"
);
}
);
width = 742;
}
);
unicode = FEDB;
},
{
color = 4;
glyphname = "lam-ar";
layers = (
{
layerId = "98B9451C-6456-42E9-9BE3-FFE7D6D9360C";
paths = (
{
closed = 1;
nodes = (
"447 669 CURVE SMOOTH",
"447 683 OFFCURVE",
"440 700 OFFCURVE",
"433 700 CURVE SMOOTH",
"415 700 OFFCURVE",
"357 600 OFFCURVE",
"357 578 CURVE SMOOTH",
"357 520 OFFCURVE",
"445 93 OFFCURVE",
"445 -33 CURVE SMOOTH",
"445 -124 OFFCURVE",
"290 -148 OFFCURVE",
"197 -148 CURVE SMOOTH",
"97 -148 OFFCURVE",
"52 -63 OFFCURVE",
"52 36 CURVE SMOOTH",
"52 108 OFFCURVE",
"71 129 OFFCURVE",
"71 147 CURVE SMOOTH",
"71 156 OFFCURVE",
"63 165 OFFCURVE",
"55 165 CURVE SMOOTH",
"39 165 OFFCURVE",
"0 74 OFFCURVE",
"0 -29 CURVE SMOOTH",
"0 -118 OFFCURVE",
"28 -255 OFFCURVE",
"220 -256 CURVE SMOOTH",
"412 -257 OFFCURVE",
"498 -83 OFFCURVE",
"498 26 CURVE SMOOTH",
"498 83 OFFCURVE",
"443 562 OFFCURVE"
);
}
);
width = 518;
}
);
unicode = 0644;
},
{
color = 4;
glyphname = "lam-ar.fina";
layers = (
{
layerId = "98B9451C-6456-42E9-9BE3-FFE7D6D9360C";
paths = (
{
closed = 1;
nodes = (
"625 100 OFFCURVE",
"577 111 OFFCURVE",
"564 140 CURVE SMOOTH",
"520 241 OFFCURVE",
"497 510 OFFCURVE",
"497 669 CURVE SMOOTH",
"497 683 OFFCURVE",
"490 700 OFFCURVE",
"483 700 CURVE SMOOTH",
"465 700 OFFCURVE",
"407 600 OFFCURVE",
"407 578 CURVE SMOOTH",
"407 520 OFFCURVE",
"445 93 OFFCURVE",
"445 -33 CURVE SMOOTH",
"445 -124 OFFCURVE",
"290 -148 OFFCURVE",
"197 -148 CURVE SMOOTH",
"97 -148 OFFCURVE",
"52 -63 OFFCURVE",
"52 36 CURVE SMOOTH",
"52 108 OFFCURVE",
"71 129 OFFCURVE",
"71 147 CURVE SMOOTH",
"71 156 OFFCURVE",
"63 165 OFFCURVE",
"55 165 CURVE SMOOTH",
"39 165 OFFCURVE",
"0 74 OFFCURVE",
"0 -29 CURVE SMOOTH",
"0 -118 OFFCURVE",
"28 -255 OFFCURVE",
"220 -256 CURVE SMOOTH",
"412 -257 OFFCURVE",
"483 -108 OFFCURVE",
"491 -33 CURVE SMOOTH",
"499 38 OFFCURVE",
"481 204 OFFCURVE",
"490 204 CURVE SMOOTH",
"496 204 OFFCURVE",
"497 112 OFFCURVE",
"544 51 CURVE SMOOTH",
"567 22 OFFCURVE",
"609 0 OFFCURVE",
"653 0 CURVE",
"652 100 LINE"
);
}
);
width = 653;
}
);
unicode = FEDE;
},
{
color = 4;
glyphname = "lam-ar.medi";
layers = (
{
layerId = "98B9451C-6456-42E9-9BE3-FFE7D6D9360C";
paths = (
{
closed = 1;
nodes = (
"206 100 OFFCURVE",
"175 440 OFFCURVE",
"175 669 CURVE SMOOTH",
"175 690 OFFCURVE",
"173 700 OFFCURVE",
"160 700 CURVE SMOOTH",
"142 700 OFFCURVE",
"84 604 OFFCURVE",
"84 578 CURVE SMOOTH",
"84 520 OFFCURVE",
"122 302 OFFCURVE",
"122 166 CURVE SMOOTH",
"122 125 OFFCURVE",
"43 100 OFFCURVE",
"0 100 CURVE",
"0 0 LINE",
"76 -1 OFFCURVE",
"101 24 OFFCURVE",
"128 76 CURVE SMOOTH",
"152 126 OFFCURVE",
"161 204 OFFCURVE",
"167 204 CURVE SMOOTH",
"176 204 OFFCURVE",
"215 0 OFFCURVE",
"330 0 CURVE",
"330 100 LINE"
);
}
);
width = 330;
}
);
unicode = FEE0;
},
{
color = 4;
glyphname = "lam-ar.init";
layers = (
{
layerId = "98B9451C-6456-42E9-9BE3-FFE7D6D9360C";
paths = (
{
closed = 1;
nodes = (
"140 0 OFFCURVE",
"150 187 OFFCURVE",
"150 262 CURVE SMOOTH",
"150 288 OFFCURVE",
"111 700 OFFCURVE",
"80 700 CURVE SMOOTH",
"62 700 OFFCURVE",
"14 604 OFFCURVE",
"14 578 CURVE SMOOTH",
"14 520 OFFCURVE",
"81 369 OFFCURVE",
"81 154 CURVE SMOOTH",
"81 129 OFFCURVE",
"62 100 OFFCURVE",
"0 100 CURVE",
"0 0 LINE"
);
}
);
width = 160;
}
);
unicode = FEDF;
},
{
glyphname = "meem-ar.fina";
layers = (
{
layerId = "98B9451C-6456-42E9-9BE3-FFE7D6D9360C";
paths = (
{
closed = 1;
nodes = (
"501 118 LINE",
"423 175 LINE",
"304 271 LINE",
"248 339 LINE",
"170 283 LINE",
"99 49 LINE",
"99 18 LINE",
"-34 -83 LINE",
"-250 -171 LINE",
"-250 -200 LINE",
"-74 -200 LINE",
"46 -103 LINE",
"126 0 LINE",
"179 -46 LINE",
"268 -64 LINE",
"338 -37 LINE",
"397 21 LINE",
"412 79 LINE",
"496 21 LINE",
"569 0 LINE",
"640 0 LINE",
"639 98 LINE"
);
},
{
closed = 1;
nodes = (
"313 49 LINE",
"218 44 LINE",
"148 83 LINE",
"202 229 LINE",
"271 163 LINE",
"361 98 LINE"
);
}
);
width = 640;
}
);
unicode = FEE2;
},
{
glyphname = "meem-ar.init";
layers = (
{
backgroundImage = {
crop = "{{0, 0}, {2000, 1500}}";
imagePath = ../documentation/refrence/1.jpg;
transform = "{34.816, 0, 0, 34.816, 0, 0}";
};
layerId = "98B9451C-6456-42E9-9BE3-FFE7D6D9360C";
paths = (
{
closed = 1;
nodes = (
"305 301 LINE",
"446 413 LINE",
"633 179 LINE",
"614 26 LINE",
"551 -2 LINE",
"162 0 LINE",
"-4 4 LINE",
"-4 126 LINE",
"247 134 LINE"
);
},
{
closed = 1;
nodes = (
"348 135 LINE",
"415 131 LINE",
"457 144 LINE",
"443 193 LINE",
"430 224 LINE",
"367 230 LINE",
"324 168 LINE"
);
}
);
width = 615;
}
);
unicode = FEE3;
},
{
color = 4;
glyphname = "noonghunna-ar";
layers = (
{
layerId = "98B9451C-6456-42E9-9BE3-FFE7D6D9360C";
paths = (
{
closed = 1;
nodes = (
"167 -350 OFFCURVE",
"30 -189 OFFCURVE",
"30 -100 CURVE SMOOTH",
"30 -12 OFFCURVE",
"99 178 OFFCURVE",
"113 178 CURVE SMOOTH",
"125 178 OFFCURVE",
"130 168 OFFCURVE",
"130 158 CURVE SMOOTH",
"130 148 OFFCURVE",
"98 40 OFFCURVE",
"98 -10 CURVE SMOOTH",
"98 -74 OFFCURVE",
"217 -230 OFFCURVE",
"286 -230 CURVE SMOOTH",
"416 -230 OFFCURVE",
"640 -49 OFFCURVE",
"640 0 CURVE SMOOTH",
"640 48 OFFCURVE",
"518 168 OFFCURVE",
"518 214 CURVE SMOOTH",
"518 241 OFFCURVE",
"573 331 OFFCURVE",
"590 331 CURVE SMOOTH",
"631 331 OFFCURVE",
"716 108 OFFCURVE",
"716 80 CURVE SMOOTH",
"716 36 OFFCURVE",
"696 -36 OFFCURVE",
"660 -108 CURVE SMOOTH",
"605 -218 OFFCURVE",
"402 -350 OFFCURVE",
"302 -350 CURVE SMOOTH"
);
}
);
width = 746;
}
);
unicode = 06BA;
},
{
color = 4;
glyphname = "noonghunna-ar.fina";
layers = (
{
layerId = "98B9451C-6456-42E9-9BE3-FFE7D6D9360C";
paths = (
{
closed = 1;
nodes = (
"68 218 OFFCURVE",
"133 281 OFFCURVE",
"150 281 CURVE SMOOTH",
"185 281 OFFCURVE",
"245 100 OFFCURVE",
"407 100 CURVE",
"406 0 LINE",
"362 0 OFFCURVE",
"343 25 OFFCURVE",
"323 25 CURVE SMOOTH",
"316 25 OFFCURVE",
"313 22 OFFCURVE",
"313 15 CURVE SMOOTH",
"313 -10 OFFCURVE",
"342 -30 OFFCURVE",
"342 -66 CURVE SMOOTH",
"342 -214 OFFCURVE",
"224 -397 OFFCURVE",
"-25 -397 CURVE SMOOTH",
"-221 -397 OFFCURVE",
"-300 -239 OFFCURVE",
"-300 -95 CURVE SMOOTH",
"-300 13 OFFCURVE",
"-273 113 OFFCURVE",
"-217 113 CURVE SMOOTH",
"-198 113 OFFCURVE",
"-191 105 OFFCURVE",
"-191 87 CURVE SMOOTH",
"-191 57 OFFCURVE",
"-219 44 OFFCURVE",
"-219 -7 CURVE SMOOTH",
"-219 -109 OFFCURVE",
"-122 -265 OFFCURVE",
"6 -265 CURVE SMOOTH",
"183 -265 OFFCURVE",
"281 -183 OFFCURVE",
"281 -95 CURVE SMOOTH",
"281 -62 OFFCURVE",
"68 156 OFFCURVE",
"68 190 CURVE SMOOTH"
);
}
);
width = 407;
}
);
unicode = FB9F;
},
{
glyphname = "heh-ar.fina";
layers = (
{
backgroundImage = {
crop = "{{0, 0}, {2000, 1500}}";
imagePath = ../documentation/refrence/1.jpg;
transform = "{34.816, 0, 0, 34.816, -11936.768, 0}";
};
layerId = "98B9451C-6456-42E9-9BE3-FFE7D6D9360C";
paths = (
{
closed = 1;
nodes = (
"609 120 LINE",
"538 163 LINE",
"498 273 LINE",
"502 465 LINE",
"487 486 LINE",
"409 451 LINE",
"396 417 LINE",
"383 307 LINE",
"250 278 LINE",
"42 187 LINE",
"-23 80 LINE",
"55 -13 LINE",
"287 -28 LINE",
"373 -22 LINE",
"483 43 LINE",
"536 0 LINE",
"603 -1 LINE",
"608 16 LINE"
);
},
{
closed = 1;
nodes = (
"418 175 LINE",
"379 122 LINE",
"197 106 LINE",
"206 158 LINE",
"328 231 LINE",
"398 228 LINE"
);
}
);
width = 615;
}
);
unicode = FEEA;
},
{
color = 10;
glyphname = "heh-ar.medi";
layers = (
{
backgroundImage = {
crop = "{{0, 0}, {2000, 1500}}";
imagePath = ../documentation/refrence/1.jpg;
locked = "1";
transform = "{34.816, 0, 0, 34.816, 0, 0}";
};
layerId = "98B9451C-6456-42E9-9BE3-FFE7D6D9360C";
paths = (
{
closed = 1;
nodes = (
"530 97 OFFCURVE",
"526 99 OFFCURVE",
"360 99 CURVE SMOOTH",
"322 99 OFFCURVE",
"283 92 OFFCURVE",
"296 101 CURVE SMOOTH",
"358 144 OFFCURVE",
"479 244 OFFCURVE",
"479 280 CURVE SMOOTH",
"479 348 OFFCURVE",
"279 550 OFFCURVE",
"223 550 CURVE SMOOTH",
"213 550 OFFCURVE",
"159 479 OFFCURVE",
"159 463 CURVE SMOOTH",
"159 446 OFFCURVE",
"192 353 OFFCURVE",
"192 314 CURVE SMOOTH",
"192 265 OFFCURVE",
"176 200 OFFCURVE",
"144 143 CURVE SMOOTH",
"133 124 OFFCURVE",
"70 100 OFFCURVE",
"0 100 CURVE",
"0 0 LINE",
"43 0 LINE SMOOTH",
"48 0 OFFCURVE",
"60 -3 OFFCURVE",
"60 -12 CURVE SMOOTH",
"60 -23 OFFCURVE",
"10 -70 OFFCURVE",
"10 -81 CURVE SMOOTH",
"10 -93 OFFCURVE",
"52 -93 OFFCURVE",
"70 -93 CURVE SMOOTH",
"78 -93 OFFCURVE",
"67 -103 OFFCURVE",
"63 -115 CURVE SMOOTH",
"44 -167 OFFCURVE",
"252 -275 OFFCURVE",
"349 -275 CURVE SMOOTH",
"571 -275 OFFCURVE",
"634 -238 OFFCURVE",
"634 -180 CURVE SMOOTH",
"634 -144 OFFCURVE",
"585 -81 OFFCURVE",
"513 -42 CURVE SMOOTH",
"500 -35 OFFCURVE",
"498 -26 OFFCURVE",
"498 -14 CURVE SMOOTH",
"498 -4 OFFCURVE",
"502 0 OFFCURVE",
"513 0 CURVE SMOOTH",
"600 1 LINE",
"599 100 LINE"
);
},
{
closed = 1;
nodes = (
"218 170 OFFCURVE",
"258 276 OFFCURVE",
"258 329 CURVE SMOOTH",
"258 352 OFFCURVE",
"255 375 OFFCURVE",
"255 383 CURVE SMOOTH",
"255 392 OFFCURVE",
"259 398 OFFCURVE",
"266 398 CURVE SMOOTH",
"281 398 OFFCURVE",
"355 274 OFFCURVE",
"355 246 CURVE SMOOTH",
"355 232 OFFCURVE",
"251 111 OFFCURVE",
"192 111 CURVE SMOOTH",
"180 111 OFFCURVE",
"178 115 OFFCURVE",
"186 126 CURVE SMOOTH"
);
},
{
closed = 1;
nodes = (
"312 -86 LINE",
"450 -126 LINE",
"419 -161 LINE",
"355 -166 LINE",
"226 -133 LINE",
"189 -76 LINE"
);
}
);
width = 600;
}
);
unicode = FEEC;
},
{
glyphname = "heh-ar.init";
layers = (
{
layerId = "98B9451C-6456-42E9-9BE3-FFE7D6D9360C";
paths = (
{
closed = 1;
nodes = (
"339 448 OFFCURVE",
"430 243 OFFCURVE",
"430 170 CURVE SMOOTH",
"430 143 OFFCURVE",
"369 37 OFFCURVE",
"333 37 CURVE SMOOTH",
"263 37 OFFCURVE",
"203 81 OFFCURVE",
"191 81 CURVE SMOOTH",
"175 81 OFFCURVE",
"57 0 OFFCURVE",
"0 0 CURVE",
"0 100 LINE",
"36 100 OFFCURVE",
"119 106 OFFCURVE",
"119 120 CURVE SMOOTH",
"119 130 OFFCURVE",
"67 167 OFFCURVE",
"67 189 CURVE SMOOTH",
"67 258 OFFCURVE",
"206 347 OFFCURVE",
"206 356 CURVE SMOOTH",
"206 363 OFFCURVE",
"195 369 OFFCURVE",
"195 380 CURVE SMOOTH",
"195 392 OFFCURVE",
"260 448 OFFCURVE",
"298 448 CURVE SMOOTH"
);
},
{
closed = 1;
nodes = (
"151 284 OFFCURVE",
"128 256 OFFCURVE",
"128 217 CURVE SMOOTH",
"128 208 OFFCURVE",
"183 181 OFFCURVE",
"198 181 CURVE SMOOTH",
"223 181 OFFCURVE",
"244 186 OFFCURVE",
"245 205 CURVE SMOOTH",
"246 233 OFFCURVE",
"215 284 OFFCURVE",
"199 284 CURVE SMOOTH"
);
},
{
closed = 1;
nodes = (
"354 130 OFFCURVE",
"365 135 OFFCURVE",
"365 148 CURVE SMOOTH",
"365 164 OFFCURVE",
"336 240 OFFCURVE",
"314 240 CURVE SMOOTH",
"305 240 OFFCURVE",
"254 172 OFFCURVE",
"254 163 CURVE SMOOTH",
"254 150 OFFCURVE",
"304 128 OFFCURVE",
"348 130 CURVE SMOOTH"
);
}
);
width = 500;
}
);
unicode = FEEB;
},
{
glyphname = "dotcenter-ar";
layers = (
{
layerId = "98B9451C-6456-42E9-9BE3-FFE7D6D9360C";
paths = (
{
closed = 1;
nodes = (
"96 233 OFFCURVE",
"150 288 OFFCURVE",
"150 303 CURVE SMOOTH",
"150 319 OFFCURVE",
"96 373 OFFCURVE",
"80 373 CURVE SMOOTH",
"64 373 OFFCURVE",
"10 319 OFFCURVE",
"10 303 CURVE SMOOTH",
"10 288 OFFCURVE",
"64 233 OFFCURVE",
"80 233 CURVE SMOOTH"
);
}
);
width = 160;
}
);
},
{
glyphname = "twodotsverticalabove-ar";
layers = (
{
layerId = "98B9451C-6456-42E9-9BE3-FFE7D6D9360C";
paths = (
{
closed = 1;
nodes = (
"10 575 OFFCURVE",
"64 520 OFFCURVE",
"80 520 CURVE SMOOTH",
"102 520 OFFCURVE",
"135 575 OFFCURVE",
"160 575 CURVE SMOOTH",
"185 575 OFFCURVE",
"218 520 OFFCURVE",
"240 520 CURVE SMOOTH",
"256 520 OFFCURVE",
"310 575 OFFCURVE",
"310 590 CURVE SMOOTH",
"310 606 OFFCURVE",
"256 660 OFFCURVE",
"240 660 CURVE SMOOTH",
"218 660 OFFCURVE",
"185 606 OFFCURVE",
"160 606 CURVE SMOOTH",
"135 606 OFFCURVE",
"102 660 OFFCURVE",
"80 660 CURVE SMOOTH",
"64 660 OFFCURVE",
"10 606 OFFCURVE",
"10 590 CURVE SMOOTH"
);
}
);
width = 320;
},
{
associatedMasterId = "98B9451C-6456-42E9-9BE3-FFE7D6D9360C";
layerId = "B872D70E-3F65-4480-8F02-5F77564B19D3";
name = "Jul 19 20, 12:59";
paths = (
{
closed = 1;
nodes = (
"96 520 OFFCURVE",
"150 575 OFFCURVE",
"150 590 CURVE SMOOTH",
"150 606 OFFCURVE",
"96 660 OFFCURVE",
"80 660 CURVE SMOOTH",
"64 660 OFFCURVE",
"10 606 OFFCURVE",
"10 590 CURVE SMOOTH",
"10 575 OFFCURVE",
"64 520 OFFCURVE",
"80 520 CURVE SMOOTH"
);
},
{
closed = 1;
nodes = (
"256 520 OFFCURVE",
"310 575 OFFCURVE",
"310 590 CURVE SMOOTH",
"310 606 OFFCURVE",
"256 660 OFFCURVE",
"240 660 CURVE SMOOTH",
"224 660 OFFCURVE",
"170 606 OFFCURVE",
"170 590 CURVE SMOOTH",
"170 575 OFFCURVE",
"224 520 OFFCURVE",
"240 520 CURVE SMOOTH"
);
}
);
visible = 1;
width = 320;
}
);
},
{
glyphname = "twodotshorizontalabove-ar";
layers = (
{
layerId = "98B9451C-6456-42E9-9BE3-FFE7D6D9360C";
paths = (
{
closed = 1;
nodes = (
"10 575 OFFCURVE",
"64 520 OFFCURVE",
"80 520 CURVE SMOOTH",
"102 520 OFFCURVE",
"135 575 OFFCURVE",
"160 575 CURVE SMOOTH",
"185 575 OFFCURVE",
"218 520 OFFCURVE",
"240 520 CURVE SMOOTH",
"256 520 OFFCURVE",
"310 575 OFFCURVE",
"310 590 CURVE SMOOTH",
"310 606 OFFCURVE",
"256 660 OFFCURVE",
"240 660 CURVE SMOOTH",
"218 660 OFFCURVE",
"185 606 OFFCURVE",
"160 606 CURVE SMOOTH",
"135 606 OFFCURVE",
"102 660 OFFCURVE",
"80 660 CURVE SMOOTH",
"64 660 OFFCURVE",
"10 606 OFFCURVE",
"10 590 CURVE SMOOTH"
);
}
);
width = 320;
}
);
},
{
glyphname = "wasla-ar";
layers = (
{
layerId = "98B9451C-6456-42E9-9BE3-FFE7D6D9360C";
paths = (
{
closed = 1;
nodes = (
"184 757 LINE",
"207 767 LINE",
"213 780 LINE",
"199 792 LINE",
"178 786 LINE",
"157 756 LINE"
);
},
{
closed = 1;
nodes = (
"161 809 LINE",
"211 825 LINE",
"264 786 LINE",
"250 716 LINE",
"177 675 LINE",
"91 691 LINE",
"42 703 LINE",
"26 682 LINE",
"0 683 LINE",
"0 704 LINE",
"31 770 LINE",
"114 766 LINE",
"128 774 LINE"
);
}
);
width = 264;
}
);
},
{
glyphname = "hamzaabove-ar";
layers = (
{
layerId = "98B9451C-6456-42E9-9BE3-FFE7D6D9360C";
paths = (
{
closed = 1;
nodes = (
"53 734 OFFCURVE",
"180 773 OFFCURVE",
"183 779 CURVE SMOOTH",
"187 784 OFFCURVE",
"193 822 OFFCURVE",
"183 822 CURVE SMOOTH",
"173 822 OFFCURVE",
"153 812 OFFCURVE",
"140 812 CURVE SMOOTH",
"127 812 OFFCURVE",
"72 820 OFFCURVE",
"72 835 CURVE SMOOTH",
"72 846 OFFCURVE",
"86 867 OFFCURVE",
"99 867 CURVE SMOOTH",
"109 867 OFFCURVE",
"133 850 OFFCURVE",
"146 850 CURVE SMOOTH",
"157 850 OFFCURVE",
"172 865 OFFCURVE",
"172 874 CURVE SMOOTH",
"172 900 OFFCURVE",
"140 912 OFFCURVE",
"113 912 CURVE SMOOTH",
"84 912 OFFCURVE",
"38 867 OFFCURVE",
"38 827 CURVE SMOOTH",
"38 791 OFFCURVE",
"81 793 OFFCURVE",
"81 784 CURVE SMOOTH",
"81 777 OFFCURVE",
"28 766 OFFCURVE",
"28 758 CURVE SMOOTH",
"28 747 OFFCURVE",
"35 734 OFFCURVE",
"41 734 CURVE SMOOTH"
);
}
);
width = 200;
}
);
unicode = 0654;
},
{
glyphname = "hamzabelow-ar";
layers = (
{
layerId = "98B9451C-6456-42E9-9BE3-FFE7D6D9360C";
paths = (
{
closed = 1;
nodes = (
"53 -256 OFFCURVE",
"180 -217 OFFCURVE",
"183 -211 CURVE SMOOTH",
"187 -206 OFFCURVE",
"193 -168 OFFCURVE",
"183 -168 CURVE SMOOTH",
"173 -168 OFFCURVE",
"153 -178 OFFCURVE",
"140 -178 CURVE SMOOTH",
"127 -178 OFFCURVE",
"72 -170 OFFCURVE",
"72 -155 CURVE SMOOTH",
"72 -144 OFFCURVE",
"86 -123 OFFCURVE",
"99 -123 CURVE SMOOTH",
"109 -123 OFFCURVE",
"133 -140 OFFCURVE",
"146 -140 CURVE SMOOTH",
"157 -140 OFFCURVE",
"172 -125 OFFCURVE",
"172 -116 CURVE SMOOTH",
"172 -90 OFFCURVE",
"140 -78 OFFCURVE",
"113 -78 CURVE SMOOTH",
"84 -78 OFFCURVE",
"38 -123 OFFCURVE",
"38 -163 CURVE SMOOTH",
"38 -199 OFFCURVE",
"81 -197 OFFCURVE",
"81 -206 CURVE SMOOTH",
"81 -213 OFFCURVE",
"28 -224 OFFCURVE",
"28 -232 CURVE SMOOTH",
"28 -243 OFFCURVE",
"35 -256 OFFCURVE",
"41 -256 CURVE SMOOTH"
);
}
);
width = 216;
}
);
unicode = 0655;
},
{
glyphname = "madda-ar";
layers = (
{
layerId = "98B9451C-6456-42E9-9BE3-FFE7D6D9360C";
paths = (
{
closed = 1;
nodes = (
"339 783 OFFCURVE",
"310 770 OFFCURVE",
"274 770 CURVE SMOOTH",
"211 770 OFFCURVE",
"146 789 OFFCURVE",
"91 819 CURVE",
"25 715 LINE",
"51 704 LINE",
"81 732 LINE",
"126 700 OFFCURVE",
"158 681 OFFCURVE",
"215 681 CURVE SMOOTH",
"314 681 OFFCURVE",
"359 737 OFFCURVE",
"387 777 CURVE",
"376 808 LINE"
);
}
);
width = 387;
}
);
unicode = 0653;
},
